<svg xmlns="http://www.w3.org/2000/svg" xmlns:xlink="http://www.w3.org/1999/xlink" contentStyleType="text/css" data-diagram-type="CLASS" height="2540px" preserveAspectRatio="none" style="width:1542px;height:2540px;background:#FFFFFF;" version="1.1" viewBox="0 0 1542 2540" width="1542px" zoomAndPan="magnify"><defs/><g><!--cluster Front--><g id="cluster_Front"><path d="M8.5,2156 L52.2451,2156 A3.75,3.75 0 0 1 54.7451,2158.5 L61.7451,2178.2969 L1131,2178.2969 A2.5,2.5 0 0 1 1133.5,2180.7969 L1133.5,2530.5 A2.5,2.5 0 0 1 1131,2533 L8.5,2533 A2.5,2.5 0 0 1 6,2530.5 L6,2158.5 A2.5,2.5 0 0 1 8.5,2156 " fill="#FFFFFF" fill-opacity="0.00000" style="stroke:#000000;stroke-width:1.5;"/><line style="stroke:#000000;stroke-width:1.5;" x1="6" x2="61.7451" y1="2178.2969" y2="2178.2969"/><text fill="#000000" font-family="sans-serif" font-size="14" font-weight="bold" lengthAdjust="spacing" textLength="42.7451" x="10" y="2170.9951">Front</text></g><!--cluster Back--><g id="cluster_Back"><path d="M416.5,1057 L455.2275,1057 A3.75,3.75 0 0 1 457.7275,1059.5 L464.7275,1079.2969 L785.5,1079.2969 A2.5,2.5 0 0 1 788,1081.7969 L788,2104.5 A2.5,2.5 0 0 1 785.5,2107 L416.5,2107 A2.5,2.5 0 0 1 414,2104.5 L414,1059.5 A2.5,2.5 0 0 1 416.5,1057 " fill="#FFFFFF" fill-opacity="0.00000" style="stroke:#000000;stroke-width:1.5;"/><line style="stroke:#000000;stroke-width:1.5;" x1="414" x2="464.7275" y1="1079.2969" y2="1079.2969"/><text fill="#000000" font-family="sans-serif" font-size="14" font-weight="bold" lengthAdjust="spacing" textLength="37.7275" x="418" y="1071.9951">Back</text></g><!--cluster Database--><g id="cluster_Database"><path d="M508,6 L583.5049,6 A3.75,3.75 0 0 1 586.0049,8.5 L593.0049,28.2969 L1532.5,28.2969 A2.5,2.5 0 0 1 1535,30.7969 L1535,1030.5 A2.5,2.5 0 0 1 1532.5,1033 L508,1033 A2.5,2.5 0 0 1 505.5,1030.5 L505.5,8.5 A2.5,2.5 0 0 1 508,6 " fill="#FFFFFF" fill-opacity="0.00000" style="stroke:#000000;stroke-width:1.5;"/><line style="stroke:#000000;stroke-width:1.5;" x1="505.5" x2="593.0049" y1="28.2969" y2="28.2969"/><text fill="#000000" font-family="sans-serif" font-size="14" font-weight="bold" lengthAdjust="spacing" textLength="74.5049" x="509.5" y="20.9951">Database</text></g><!--class Front_Login--><g id="elem_Front_Login"><rect codeLine="10" fill="#F1F1F1" height="58.5938" id="Front_Login" rx="2.5" ry="2.5" style="stroke:#181818;stroke-width:0.5;" width="171.5508" x="22" y="2258.5"/><text fill="#000000" font-family="sans-serif" font-size="14" lengthAdjust="spacing" textLength="38.0146" x="88.7681" y="2276.4951">Login</text><line style="stroke:#181818;stroke-width:0.5;" x1="23" x2="192.5508" y1="2284.7969" y2="2284.7969"/><text fill="#000000" font-family="sans-serif" font-size="14" lengthAdjust="spacing" textLength="159.5508" x="28" y="2301.792">Store Token in Session</text><line style="stroke:#181818;stroke-width:0.5;" x1="23" x2="192.5508" y1="2309.0938" y2="2309.0938"/></g><!--class Menu--><g id="elem_Menu"><rect codeLine="14" fill="#F1F1F1" height="42.2969" id="Menu" rx="2.5" ry="2.5" style="stroke:#181818;stroke-width:0.5;" width="44.4385" x="290" y="2333"/><text fill="#000000" font-family="sans-serif" font-size="14" lengthAdjust="spacing" textLength="38.4385" x="293" y="2350.9951">Menu</text><line style="stroke:#181818;stroke-width:0.5;" x1="291" x2="333.4385" y1="2359.2969" y2="2359.2969"/><line style="stroke:#181818;stroke-width:0.5;" x1="291" x2="333.4385" y1="2367.2969" y2="2367.2969"/></g><!--class Front_Problem--><g id="elem_Front_Problem"><rect codeLine="20" fill="#F1F1F1" height="42.2969" id="Front_Problem" rx="2.5" ry="2.5" style="stroke:#181818;stroke-width:0.5;" width="165.5371" x="518" y="2475"/><text fill="#000000" font-family="sans-serif" font-size="14" lengthAdjust="spacing" textLength="159.5371" x="521" y="2492.9951">Problem List (In menu)</text><line style="stroke:#181818;stroke-width:0.5;" x1="519" x2="682.5371" y1="2501.2969" y2="2501.2969"/><line style="stroke:#181818;stroke-width:0.5;" x1="519" x2="682.5371" y1="2509.2969" y2="2509.2969"/></g><!--class Front_Leaderboard--><g id="elem_Front_Leaderboard"><rect codeLine="26" fill="#F1F1F1" height="42.2969" id="Front_Leaderboard" rx="2.5" ry="2.5" style="stroke:#181818;stroke-width:0.5;" width="167.7451" x="517" y="2333"/><text fill="#000000" font-family="sans-serif" font-size="14" lengthAdjust="spacing" textLength="161.7451" x="520" y="2350.9951">Leaderboard (In menu)</text><line style="stroke:#181818;stroke-width:0.5;" x1="518" x2="683.7451" y1="2359.2969" y2="2359.2969"/><line style="stroke:#181818;stroke-width:0.5;" x1="518" x2="683.7451" y1="2367.2969" y2="2367.2969"/></g><!--class Front_Score--><g id="elem_Front_Score"><rect codeLine="32" fill="#F1F1F1" height="42.2969" id="Front_Score" rx="2.5" ry="2.5" style="stroke:#181818;stroke-width:0.5;" width="165.0107" x="518.5" y="2191"/><text fill="#000000" font-family="sans-serif" font-size="14" lengthAdjust="spacing" textLength="159.0107" x="521.5" y="2208.9951">Score house (In menu)</text><line style="stroke:#181818;stroke-width:0.5;" x1="519.5" x2="682.5107" y1="2217.2969" y2="2217.2969"/><line style="stroke:#181818;stroke-width:0.5;" x1="519.5" x2="682.5107" y1="2225.2969" y2="2225.2969"/></g><!--class Front_Coding--><g id="elem_Front_Coding"><rect codeLine="38" fill="#F1F1F1" height="42.2969" id="Front_Coding" rx="2.5" ry="2.5" style="stroke:#181818;stroke-width:0.5;" width="169.4199" x="948.5" y="2333"/><text fill="#000000" font-family="sans-serif" font-size="14" lengthAdjust="spacing" textLength="163.4199" x="951.5" y="2350.9951">Solve problem / Coding</text><line style="stroke:#181818;stroke-width:0.5;" x1="949.5" x2="1116.9199" y1="2359.2969" y2="2359.2969"/><line style="stroke:#181818;stroke-width:0.5;" x1="949.5" x2="1116.9199" y1="2367.2969" y2="2367.2969"/></g><!--class Front_Create_Problem--><g id="elem_Front_Create_Problem"><rect codeLine="42" fill="#F1F1F1" height="42.2969" id="Front_Create_Problem" rx="2.5" ry="2.5" style="stroke:#181818;stroke-width:0.5;" width="115.5117" x="254" y="2191"/><text fill="#000000" font-family="sans-serif" font-size="14" lengthAdjust="spacing" textLength="109.5117" x="257" y="2208.9951">Create problem</text><line style="stroke:#181818;stroke-width:0.5;" x1="255" x2="368.5117" y1="2217.2969" y2="2217.2969"/><line style="stroke:#181818;stroke-width:0.5;" x1="255" x2="368.5117" y1="2225.2969" y2="2225.2969"/></g><!--class Front_Setting--><g id="elem_Front_Setting"><rect codeLine="46" fill="#F1F1F1" height="42.2969" id="Front_Setting" rx="2.5" ry="2.5" style="stroke:#181818;stroke-width:0.5;" width="56.1279" x="284" y="2475"/><text fill="#000000" font-family="sans-serif" font-size="14" lengthAdjust="spacing" textLength="50.1279" x="287" y="2492.9951">Setting</text><line style="stroke:#181818;stroke-width:0.5;" x1="285" x2="339.1279" y1="2501.2969" y2="2501.2969"/><line style="stroke:#181818;stroke-width:0.5;" x1="285" x2="339.1279" y1="2509.2969" y2="2509.2969"/></g><!--class Back_User--><g id="elem_Back_User"><rect codeLine="57" fill="#F1F1F1" height="91.1875" id="Back_User" rx="2.5" ry="2.5" style="stroke:#181818;stroke-width:0.5;" width="152.0547" x="525" y="1442.5"/><text fill="#000000" font-family="sans-serif" font-size="14" lengthAdjust="spacing" textLength="31.9102" x="585.0723" y="1460.4951">User</text><line style="stroke:#181818;stroke-width:0.5;" x1="526" x2="676.0547" y1="1468.7969" y2="1468.7969"/><line style="stroke:#181818;stroke-width:0.5;" x1="526" x2="676.0547" y1="1476.7969" y2="1476.7969"/><ellipse cx="536" cy="1490.4453" fill="#84BE84" rx="3" ry="3" style="stroke:#038048;stroke-width:1;"/><text fill="#000000" font-family="sans-serif" font-size="14" lengthAdjust="spacing" textLength="59.3291" x="545" y="1493.792">Search()</text><ellipse cx="536" cy="1506.7422" fill="#84BE84" rx="3" ry="3" style="stroke:#038048;stroke-width:1;"/><text fill="#000000" font-family="sans-serif" font-size="14" lengthAdjust="spacing" textLength="73.6709" x="545" y="1510.0889">Get_Role()</text><ellipse cx="536" cy="1523.0391" fill="#84BE84" rx="3" ry="3" style="stroke:#038048;stroke-width:1;"/><text fill="#000000" font-family="sans-serif" font-size="14" lengthAdjust="spacing" textLength="126.0547" x="545" y="1526.3857">Get_User(User.ID)</text></g><!--class Back_Problem--><g id="elem_Back_Problem"><rect codeLine="63" fill="#F1F1F1" height="91.1875" id="Back_Problem" rx="2.5" ry="2.5" style="stroke:#181818;stroke-width:0.5;" width="342.2441" x="430" y="1999.5"/><text fill="#000000" font-family="sans-serif" font-size="14" lengthAdjust="spacing" textLength="57.791" x="572.2266" y="2017.4951">Problem</text><line style="stroke:#181818;stroke-width:0.5;" x1="431" x2="771.2441" y1="2025.7969" y2="2025.7969"/><line style="stroke:#181818;stroke-width:0.5;" x1="431" x2="771.2441" y1="2033.7969" y2="2033.7969"/><ellipse cx="441" cy="2047.4453" fill="#84BE84" rx="3" ry="3" style="stroke:#038048;stroke-width:1;"/><text fill="#000000" font-family="sans-serif" font-size="14" lengthAdjust="spacing" textLength="59.3291" x="450" y="2050.792">Search()</text><ellipse cx="441" cy="2063.7422" fill="#84BE84" rx="3" ry="3" style="stroke:#038048;stroke-width:1;"/><text fill="#000000" font-family="sans-serif" font-size="14" lengthAdjust="spacing" textLength="316.2441" x="450" y="2067.0889">Create_Problem(Problem_Data) : Problem.ID;</text><ellipse cx="441" cy="2080.0391" fill="#84BE84" rx="3" ry="3" style="stroke:#038048;stroke-width:1;"/><text fill="#000000" font-family="sans-serif" font-size="14" lengthAdjust="spacing" textLength="273.1709" x="450" y="2083.3857">Delete_Problem(Problem.ID) : boolean;</text></g><!--class Back_Score--><g id="elem_Back_Score"><rect codeLine="69" fill="#F1F1F1" height="107.4844" id="Back_Score" rx="2.5" ry="2.5" style="stroke:#181818;stroke-width:0.5;" width="205.71" x="498" y="1633.5"/><text fill="#000000" font-family="sans-serif" font-size="14" lengthAdjust="spacing" textLength="39.5186" x="581.0957" y="1651.4951">Score</text><line style="stroke:#181818;stroke-width:0.5;" x1="499" x2="702.71" y1="1659.7969" y2="1659.7969"/><line style="stroke:#181818;stroke-width:0.5;" x1="499" x2="702.71" y1="1667.7969" y2="1667.7969"/><ellipse cx="509" cy="1681.4453" fill="#84BE84" rx="3" ry="3" style="stroke:#038048;stroke-width:1;"/><text fill="#000000" font-family="sans-serif" font-size="14" lengthAdjust="spacing" textLength="179.71" x="518" y="1684.792">Change(User.ID, Amount)</text><ellipse cx="509" cy="1697.7422" fill="#84BE84" rx="3" ry="3" style="stroke:#038048;stroke-width:1;"/><text fill="#000000" font-family="sans-serif" font-size="14" lengthAdjust="spacing" textLength="149.0986" x="518" y="1701.0889">Set(User.ID, Amount)</text><ellipse cx="509" cy="1714.0391" fill="#84BE84" rx="3" ry="3" style="stroke:#038048;stroke-width:1;"/><text fill="#000000" font-family="sans-serif" font-size="14" lengthAdjust="spacing" textLength="126.6904" x="518" y="1717.3857">Get_Logs(User.ID)</text><ellipse cx="509" cy="1730.3359" fill="#84BE84" rx="3" ry="3" style="stroke:#038048;stroke-width:1;"/><text fill="#000000" font-family="sans-serif" font-size="14" lengthAdjust="spacing" textLength="166.3184" x="518" y="1733.6826">Get_Leaderboard(Page)</text></g><!--class Back_Authenticator--><g id="elem_Back_Authenticator"><rect codeLine="76" fill="#F1F1F1" height="91.1875" id="Back_Authenticator" rx="2.5" ry="2.5" style="stroke:#181818;stroke-width:0.5;" width="316.2266" x="443" y="1092.5"/><text fill="#000000" font-family="sans-serif" font-size="14" lengthAdjust="spacing" textLength="95.7646" x="553.231" y="1110.4951">Authenticator</text><line style="stroke:#181818;stroke-width:0.5;" x1="444" x2="758.2266" y1="1118.7969" y2="1118.7969"/><line style="stroke:#181818;stroke-width:0.5;" x1="444" x2="758.2266" y1="1126.7969" y2="1126.7969"/><ellipse cx="454" cy="1140.4453" fill="#84BE84" rx="3" ry="3" style="stroke:#038048;stroke-width:1;"/><text fill="#000000" font-family="sans-serif" font-size="14" lengthAdjust="spacing" textLength="290.2266" x="463" y="1143.792">Check_Valid(Email, Password) : Token.ID;</text><ellipse cx="454" cy="1156.7422" fill="#84BE84" rx="3" ry="3" style="stroke:#038048;stroke-width:1;"/><text fill="#000000" font-family="sans-serif" font-size="14" lengthAdjust="spacing" textLength="281.9004" x="463" y="1160.0889">Check_Valid_Token(Token.ID) : boolean;</text><ellipse cx="454" cy="1173.0391" fill="#84BE84" rx="3" ry="3" style="stroke:#038048;stroke-width:1;"/><text fill="#000000" font-family="sans-serif" font-size="14" lengthAdjust="spacing" textLength="168.3965" x="463" y="1176.3857">Forget_Password(Email)</text></g><!--class Back_Run_Code--><g id="elem_Back_Run_Code"><rect codeLine="82" fill="#F1F1F1" height="58.5938" id="Back_Run_Code" rx="2.5" ry="2.5" style="stroke:#181818;stroke-width:0.5;" width="249.3711" x="476.5" y="1840.5"/><text fill="#000000" font-family="sans-serif" font-size="14" lengthAdjust="spacing" textLength="70.3145" x="566.0283" y="1858.4951">Run_Code</text><line style="stroke:#181818;stroke-width:0.5;" x1="477.5" x2="724.8711" y1="1866.7969" y2="1866.7969"/><line style="stroke:#181818;stroke-width:0.5;" x1="477.5" x2="724.8711" y1="1874.7969" y2="1874.7969"/><ellipse cx="487.5" cy="1888.4453" fill="#84BE84" rx="3" ry="3" style="stroke:#038048;stroke-width:1;"/><text fill="#000000" font-family="sans-serif" font-size="14" lengthAdjust="spacing" textLength="223.3711" x="496.5" y="1891.792">Run_Code(input, code, timeout)</text></g><!--class Back_Email--><g id="elem_Back_Email"><rect codeLine="86" fill="#F1F1F1" height="58.5938" id="Back_Email" rx="2.5" ry="2.5" style="stroke:#181818;stroke-width:0.5;" width="171.1543" x="515.5" y="1283.5"/><text fill="#000000" font-family="sans-serif" font-size="14" lengthAdjust="spacing" textLength="38.8418" x="581.6563" y="1301.4951">Email</text><line style="stroke:#181818;stroke-width:0.5;" x1="516.5" x2="685.6543" y1="1309.7969" y2="1309.7969"/><line style="stroke:#181818;stroke-width:0.5;" x1="516.5" x2="685.6543" y1="1317.7969" y2="1317.7969"/><ellipse cx="526.5" cy="1331.4453" fill="#84BE84" rx="3" ry="3" style="stroke:#038048;stroke-width:1;"/><text fill="#000000" font-family="sans-serif" font-size="14" lengthAdjust="spacing" textLength="145.1543" x="535.5" y="1334.792">Send(Email,Content)</text></g><!--class Data--><g id="elem_Data"><rect codeLine="100" fill="#F1F1F1" height="74.8906" id="Data" rx="2.5" ry="2.5" style="stroke:#181818;stroke-width:0.5;" width="159.417" x="521.5" y="475.5"/><text fill="#000000" font-family="sans-serif" font-size="14" lengthAdjust="spacing" textLength="33.4277" x="584.4946" y="493.4951">Data</text><line style="stroke:#181818;stroke-width:0.5;" x1="522.5" x2="679.917" y1="501.7969" y2="501.7969"/><text fill="#000000" font-family="sans-serif" font-size="14" lengthAdjust="spacing" textLength="147.417" x="527.5" y="518.792">Problems : Problem[]</text><text fill="#000000" font-family="sans-serif" font-size="14" lengthAdjust="spacing" textLength="95.6553" x="527.5" y="535.0889">Users : User[]</text><line style="stroke:#181818;stroke-width:0.5;" x1="522.5" x2="679.917" y1="542.3906" y2="542.3906"/></g><!--class Problem--><g id="elem_Problem"><rect codeLine="105" fill="#F1F1F1" height="221.5625" id="Problem" rx="2.5" ry="2.5" style="stroke:#181818;stroke-width:0.5;" width="371.8848" x="847" y="41"/><text fill="#000000" font-family="sans-serif" font-size="14" lengthAdjust="spacing" textLength="57.791" x="1004.0469" y="58.9951">Problem</text><line style="stroke:#181818;stroke-width:0.5;" x1="848" x2="1217.8848" y1="67.2969" y2="67.2969"/><text fill="#000000" font-family="sans-serif" font-size="14" lengthAdjust="spacing" textLength="59.3154" x="853" y="84.292">ID: uuid;</text><text fill="#000000" font-family="sans-serif" font-size="14" lengthAdjust="spacing" textLength="4.4502" x="853" y="100.5889">&#160;</text><text fill="#000000" font-family="sans-serif" font-size="14" lengthAdjust="spacing" textLength="84.5059" x="853" y="116.8857">Title: string;</text><text fill="#000000" font-family="sans-serif" font-size="14" lengthAdjust="spacing" textLength="112.2871" x="853" y="133.1826">Author: User.ID;</text><text fill="#000000" font-family="sans-serif" font-size="14" lengthAdjust="spacing" textLength="141.2373" x="853" y="149.4795">Description?: string;</text><text fill="#000000" font-family="sans-serif" font-size="14" lengthAdjust="spacing" textLength="4.4502" x="853" y="165.7764">&#160;</text><text fill="#000000" font-family="sans-serif" font-size="14" lengthAdjust="spacing" textLength="155.4971" x="853" y="182.0732">Default_Code?: string;</text><text fill="#000000" font-family="sans-serif" font-size="14" lengthAdjust="spacing" textLength="354.9492" x="853" y="198.3701">Difficulty: 0.5 | 1 | 1.5 | 2 | 2.5 | 3 | 3.5 | 4 | 4.5 | 5;</text><text fill="#000000" font-family="sans-serif" font-size="14" lengthAdjust="spacing" textLength="105.7383" x="853" y="214.667">Tags?: string[];</text><text fill="#000000" font-family="sans-serif" font-size="14" lengthAdjust="spacing" textLength="4.4502" x="853" y="230.9639">&#160;</text><text fill="#000000" font-family="sans-serif" font-size="14" lengthAdjust="spacing" textLength="359.8848" x="853" y="247.2607">Status?: "Published" | "Needs Review" | "Rejected";</text><line style="stroke:#181818;stroke-width:0.5;" x1="848" x2="1217.8848" y1="254.5625" y2="254.5625"/></g><!--class Data_Users--><g id="elem_Data_Users"><rect codeLine="121" fill="#F1F1F1" height="286.75" id="Data_Users" rx="2.5" ry="2.5" style="stroke:#181818;stroke-width:0.5;" width="401.5322" x="832" y="729.5"/><text fill="#000000" font-family="sans-serif" font-size="14" lengthAdjust="spacing" textLength="31.9102" x="1016.811" y="747.4951">User</text><line style="stroke:#181818;stroke-width:0.5;" x1="833" x2="1232.5322" y1="755.7969" y2="755.7969"/><text fill="#000000" font-family="sans-serif" font-size="14" lengthAdjust="spacing" textLength="59.3154" x="838" y="772.792">ID: uuid;</text><text fill="#000000" font-family="sans-serif" font-size="14" lengthAdjust="spacing" textLength="131.0928" x="838" y="789.0889">Student_ID: string;</text><text fill="#000000" font-family="sans-serif" font-size="14" lengthAdjust="spacing" textLength="110.2295" x="838" y="805.3857">Token: Token[];</text><text fill="#000000" font-family="sans-serif" font-size="14" lengthAdjust="spacing" textLength="4.4502" x="838" y="821.6826">&#160;</text><text fill="#000000" font-family="sans-serif" font-size="14" lengthAdjust="spacing" textLength="95.375" x="838" y="837.9795">Name: string;</text><text fill="#000000" font-family="sans-serif" font-size="14" lengthAdjust="spacing" textLength="240.6797" x="838" y="854.2764">Role: "Member" | "Admin" | "Dev";</text><text fill="#000000" font-family="sans-serif" font-size="14" lengthAdjust="spacing" textLength="4.4502" x="838" y="870.5732">&#160;</text><text fill="#000000" font-family="sans-serif" font-size="14" lengthAdjust="spacing" textLength="389.5322" x="838" y="886.8701">House: string; Use "House1" | "House2" for now to test;</text><text fill="#000000" font-family="sans-serif" font-size="14" lengthAdjust="spacing" textLength="108.042" x="838" y="903.167">Score: number;</text><text fill="#000000" font-family="sans-serif" font-size="14" lengthAdjust="spacing" textLength="175.6426" x="838" y="919.4639">Score_Logs: Score_Log[];</text><text fill="#000000" font-family="sans-serif" font-size="14" lengthAdjust="spacing" textLength="4.4502" x="838" y="935.7607">&#160;</text><text fill="#000000" font-family="sans-serif" font-size="14" lengthAdjust="spacing" textLength="92.9141" x="838" y="952.0576">Email: string;</text><text fill="#000000" font-family="sans-serif" font-size="14" lengthAdjust="spacing" textLength="120.3398" x="838" y="968.3545">Password: string;</text><text fill="#000000" font-family="sans-serif" font-size="14" lengthAdjust="spacing" textLength="4.4502" x="838" y="984.6514">&#160;</text><text fill="#000000" font-family="sans-serif" font-size="14" lengthAdjust="spacing" textLength="191.0439" x="838" y="1000.9482">Problems : Problem_User[];</text><line style="stroke:#181818;stroke-width:0.5;" x1="833" x2="1232.5322" y1="1008.25" y2="1008.25"/></g><!--class Score_Log--><g id="elem_Score_Log"><rect codeLine="139" fill="#F1F1F1" height="91.1875" id="Score_Log" rx="2.5" ry="2.5" style="stroke:#181818;stroke-width:0.5;" width="139.9893" x="963" y="538.5"/><text fill="#000000" font-family="sans-serif" font-size="14" lengthAdjust="spacing" textLength="71.7705" x="997.1094" y="556.4951">Score_Log</text><line style="stroke:#181818;stroke-width:0.5;" x1="964" x2="1101.9893" y1="564.7969" y2="564.7969"/><text fill="#000000" font-family="sans-serif" font-size="14" lengthAdjust="spacing" textLength="127.9893" x="969" y="581.792">Amount : number;</text><text fill="#000000" font-family="sans-serif" font-size="14" lengthAdjust="spacing" textLength="68.1338" x="969" y="598.0889">By : User;</text><text fill="#000000" font-family="sans-serif" font-size="14" lengthAdjust="spacing" textLength="80.8076" x="969" y="614.3857">Date: Date;</text><line style="stroke:#181818;stroke-width:0.5;" x1="964" x2="1101.9893" y1="621.6875" y2="621.6875"/></g><!--class Token--><g id="elem_Token"><rect codeLine="147" fill="#F1F1F1" height="74.8906" id="Token" rx="2.5" ry="2.5" style="stroke:#181818;stroke-width:0.5;" width="97.2578" x="984.5" y="363.5"/><text fill="#000000" font-family="sans-serif" font-size="14" lengthAdjust="spacing" textLength="42.7109" x="1011.7734" y="381.4951">Token</text><line style="stroke:#181818;stroke-width:0.5;" x1="985.5" x2="1080.7578" y1="389.7969" y2="389.7969"/><text fill="#000000" font-family="sans-serif" font-size="14" lengthAdjust="spacing" textLength="73.4316" x="990.5" y="406.792">ID : string;</text><text fill="#000000" font-family="sans-serif" font-size="14" lengthAdjust="spacing" textLength="85.2578" x="990.5" y="423.0889">Date : Date;</text><line style="stroke:#181818;stroke-width:0.5;" x1="985.5" x2="1080.7578" y1="430.3906" y2="430.3906"/></g><!--class Problem_User--><g id="elem_Problem_User"><rect codeLine="155" fill="#F1F1F1" height="91.1875" id="Problem_User" rx="2.5" ry="2.5" style="stroke:#181818;stroke-width:0.5;" width="224.7617" x="1294" y="827.5"/><text fill="#000000" font-family="sans-serif" font-size="14" lengthAdjust="spacing" textLength="96.7012" x="1358.0303" y="845.4951">Problem_User</text><line style="stroke:#181818;stroke-width:0.5;" x1="1295" x2="1517.7617" y1="853.7969" y2="853.7969"/><text fill="#000000" font-family="sans-serif" font-size="14" lengthAdjust="spacing" textLength="170.4678" x="1300" y="870.792">Problem_ID : Problem.ID</text><text fill="#000000" font-family="sans-serif" font-size="14" lengthAdjust="spacing" textLength="89.6465" x="1300" y="887.0889">Code : string</text><text fill="#000000" font-family="sans-serif" font-size="14" lengthAdjust="spacing" textLength="212.7617" x="1300" y="903.3857">Status: "Done" | "In Progress";</text><line style="stroke:#181818;stroke-width:0.5;" x1="1295" x2="1517.7617" y1="910.6875" y2="910.6875"/></g><!--class Compiler--><g id="elem_Compiler"><rect fill="#F1F1F1" height="42.2969" id="Compiler" rx="2.5" ry="2.5" style="stroke:#181818;stroke-width:0.5;" width="69.0137" x="998.5" y="1849"/><text fill="#000000" font-family="sans-serif" font-size="14" lengthAdjust="spacing" textLength="63.0137" x="1001.5" y="1866.9951">Compiler</text><line style="stroke:#181818;stroke-width:0.5;" x1="999.5" x2="1066.5137" y1="1875.2969" y2="1875.2969"/><line style="stroke:#181818;stroke-width:0.5;" x1="999.5" x2="1066.5137" y1="1883.2969" y2="1883.2969"/></g><!--link Front_Login to Menu--><g id="link_Front_Login_Menu"><path codeLine="18" d="M194.12,2288 C247.13,2288 305,2288 305,2288 C305,2288 305,2307.46 305,2326.75 " fill="#FFFFFF" fill-opacity="0.00000" id="Front_Login-to-Menu" style="stroke:#181818;stroke-width:1;"/><polygon fill="#181818" points="305,2332.75,309,2323.75,305,2327.75,301,2323.75,305,2332.75" style="stroke:#181818;stroke-width:1;"/><text fill="#000000" font-family="sans-serif" font-size="13" lengthAdjust="spacing" textLength="67.7104" x="203.94" y="2301.0669">After login</text></g><!--reverse link Menu to Front_Problem--><g id="link_Menu_Front_Problem"><path codeLine="24" d="M352.19,2364.5 C401.13,2364.5 496,2364.5 496,2364.5 C496,2364.5 496,2496 496,2496 C496,2496 505.01,2496 517.76,2496 " fill="#FFFFFF" fill-opacity="0.00000" id="Menu-backto-Front_Problem" style="stroke:#181818;stroke-width:1;"/><polygon fill="#FFFFFF" fill-opacity="0.00000" points="334.19,2364.5,352.19,2370.5,352.19,2358.5,334.19,2364.5" style="stroke:#181818;stroke-width:1;"/></g><!--reverse link Menu to Front_Leaderboard--><g id="link_Menu_Front_Leaderboard"><path codeLine="30" d="M352.2,2354 C390.79,2354 454.14,2354 516.93,2354 " fill="#FFFFFF" fill-opacity="0.00000" id="Menu-backto-Front_Leaderboard" style="stroke:#181818;stroke-width:1;"/><polygon fill="#FFFFFF" fill-opacity="0.00000" points="334.2,2354,352.2,2360,352.2,2348,334.2,2354" style="stroke:#181818;stroke-width:1;"/></g><!--reverse link Menu to Front_Score--><g id="link_Menu_Front_Score"><path codeLine="36" d="M352.19,2343.5 C396.55,2343.5 474,2343.5 474,2343.5 C474,2343.5 474,2219 474,2219 C474,2219 494.16,2219 518.42,2219 " fill="#FFFFFF" fill-opacity="0.00000" id="Menu-backto-Front_Score" style="stroke:#181818;stroke-width:1;"/><polygon fill="#FFFFFF" fill-opacity="0.00000" points="334.19,2343.5,352.19,2349.5,352.19,2337.5,334.19,2343.5" style="stroke:#181818;stroke-width:1;"/></g><!--link Front_Problem to Front_Coding--><g id="link_Front_Problem_Front_Coding"><path codeLine="50" d="M684.04,2496 C809.52,2496 1033,2496 1033,2496 C1033,2496 1033,2420.87 1033,2381.26 " fill="#FFFFFF" fill-opacity="0.00000" id="Front_Problem-to-Front_Coding" style="stroke:#181818;stroke-width:1;"/><polygon fill="#181818" points="1033,2375.26,1029,2384.26,1033,2380.26,1037,2384.26,1033,2375.26" style="stroke:#181818;stroke-width:1;"/></g><!--reverse link Front_Create_Problem to Menu--><g id="link_Front_Create_Problem_Menu"><path codeLine="52" d="M320,2239.26 C320,2266.03 320,2305.76 320,2332.6 " fill="#FFFFFF" fill-opacity="0.00000" id="Front_Create_Problem-backto-Menu" style="stroke:#181818;stroke-width:1;"/><polygon fill="#181818" points="320,2233.26,316,2242.26,320,2238.26,324,2242.26,320,2233.26" style="stroke:#181818;stroke-width:1;"/><text fill="#000000" font-family="sans-serif" font-size="13" lengthAdjust="spacing" textLength="164.6201" x="321" y="2295.9969">Button to create problem</text></g><!--reverse link Front_Setting to Menu--><g id="link_Front_Setting_Menu"><path codeLine="53" d="M312,2468.74 C312,2441.97 312,2402.24 312,2375.4 " fill="#FFFFFF" fill-opacity="0.00000" id="Front_Setting-backto-Menu" style="stroke:#181818;stroke-width:1;"/><polygon fill="#181818" points="312,2474.74,316,2465.74,312,2469.74,308,2465.74,312,2474.74" style="stroke:#181818;stroke-width:1;"/><text fill="#000000" font-family="sans-serif" font-size="13" lengthAdjust="spacing" textLength="89.9209" x="222" y="2438.1369">Settings page</text></g><!--reverse link Back_Email to Back_Authenticator--><g id="link_Back_Email_Back_Authenticator"><path codeLine="90" d="M601,1277.31 C601,1250.01 601,1215.11 601,1183.65 " fill="#FFFFFF" fill-opacity="0.00000" id="Back_Email-backto-Back_Authenticator" style="stroke:#181818;stroke-width:1;"/><polygon fill="#181818" points="601,1283.31,605,1274.31,601,1278.31,597,1274.31,601,1283.31" style="stroke:#181818;stroke-width:1;"/><text fill="#000000" font-family="sans-serif" font-size="13" lengthAdjust="spacing" textLength="184.8628" x="416" y="1246.5469">Send Forget Password Email</text></g><!--link Back_User to Back_Score--><g id="link_Back_User_Back_Score"><path codeLine="91" d="M601,1533.65 C601,1563.37 601,1602.27 601,1633.45 " fill="#FFFFFF" fill-opacity="0.00000" id="Back_User-Back_Score" style="stroke:#181818;stroke-width:1;"/><text fill="#000000" font-family="sans-serif" font-size="13" lengthAdjust="spacing" textLength="80.8057" x="520" y="1596.6169">User's Score</text></g><!--reverse link Data to Problem--><g id="link_Data_Problem"><path codeLine="119" d="M692.87,507 C782.94,507 905,507 905,507 C905,507 905,367.46 905,263.35 " fill="#FFFFFF" fill-opacity="0.00000" id="Data-backto-Problem" style="stroke:#181818;stroke-width:1;"/><polygon fill="#FFFFFF" fill-opacity="0.00000" points="680.87,507,686.87,511,692.87,507,686.87,503,680.87,507" style="stroke:#181818;stroke-width:1;"/><text fill="#000000" font-family="sans-serif" font-size="13" lengthAdjust="spacing" textLength="99.2139" x="805" y="510.3069">Store Problems</text></g><!--reverse link Data_Users to Score_Log--><g id="link_Data_Users_Score_Log"><path codeLine="144" d="M1010,717.35 C1010,681.22 1010,657.03 1010,629.79 " fill="#FFFFFF" fill-opacity="0.00000" id="Data_Users-backto-Score_Log" style="stroke:#181818;stroke-width:1;"/><polygon fill="#FFFFFF" fill-opacity="0.00000" points="1010,729.35,1014,723.35,1010,717.35,1006,723.35,1010,729.35" style="stroke:#181818;stroke-width:1;"/></g><!--link Score_Log to Data_Users--><g id="link_Score_Log_Data_Users"><path codeLine="145" d="M1057,629.79 C1057,657.01 1057,687.17 1057,723.28 " fill="#FFFFFF" fill-opacity="0.00000" id="Score_Log-to-Data_Users" style="stroke:#181818;stroke-width:1;"/><polygon fill="#181818" points="1057,729.28,1061,720.28,1057,724.28,1053,720.28,1057,729.28" style="stroke:#181818;stroke-width:1;"/></g><!--reverse link Data_Users to Token--><g id="link_Data_Users_Token"><path codeLine="152" d="M1161,717.46 C1161,578.6 1161,401 1161,401 C1161,401 1117.93,401 1081.76,401 " fill="#FFFFFF" fill-opacity="0.00000" id="Data_Users-backto-Token" style="stroke:#181818;stroke-width:1;"/><polygon fill="#FFFFFF" fill-opacity="0.00000" points="1161,729.46,1165,723.46,1161,717.46,1157,723.46,1161,729.46" style="stroke:#181818;stroke-width:1;"/></g><!--reverse link Data to Data_Users--><g id="link_Data_Data_Users"><path codeLine="153" d="M692.58,544.5 C762.11,544.5 840,544.5 840,544.5 C840,544.5 840,641 840,729.39 " fill="#FFFFFF" fill-opacity="0.00000" id="Data-backto-Data_Users" style="stroke:#181818;stroke-width:1;"/><polygon fill="#FFFFFF" fill-opacity="0.00000" points="680.58,544.5,686.58,548.5,692.58,544.5,686.58,540.5,680.58,544.5" style="stroke:#181818;stroke-width:1;"/><text fill="#000000" font-family="sans-serif" font-size="13" lengthAdjust="spacing" textLength="75.1816" x="764" y="570.3069">Store Users</text></g><!--reverse link Data_Users to Problem_User--><g id="link_Data_Users_Problem_User"><path codeLine="161" d="M1246.24,873 C1266.59,873 1274.71,873 1293.62,873 " fill="#FFFFFF" fill-opacity="0.00000" id="Data_Users-backto-Problem_User" style="stroke:#181818;stroke-width:1;"/><polygon fill="#FFFFFF" fill-opacity="0.00000" points="1234.24,873,1240.24,877,1246.24,873,1240.24,869,1234.24,873" style="stroke:#181818;stroke-width:1;"/></g><!--link Front_Login to Back_Authenticator--><g id="link_Front_Login_Back_Authenticator"><path codeLine="165" d="M108,2252.42 C108,2072.42 108,1138 108,1138 C108,1138 292.78,1138 436.98,1138 " fill="#FFFFFF" fill-opacity="0.00000" id="Front_Login-Back_Authenticator" style="stroke:#181818;stroke-width:1;"/><polygon fill="#181818" points="108,2258.42,112,2249.42,108,2253.42,104,2249.42,108,2258.42" style="stroke:#181818;stroke-width:1;"/><polygon fill="#181818" points="442.98,1138,433.98,1134,437.98,1138,433.98,1142,442.98,1138" style="stroke:#181818;stroke-width:1;"/><text fill="#000000" font-family="sans-serif" font-size="13" lengthAdjust="spacing" textLength="35.2993" x="72" y="1543.7869">Login</text></g><!--link Front_Leaderboard to Back_Score--><g id="link_Front_Leaderboard_Back_Score"><path codeLine="167" d="M691.08,2354 C746.16,2354 802,2354 802,2354 C802,2354 802,1704.83 802,1704.83 C802,1704.83 759.5,1704.83 710.15,1704.83 " fill="#FFFFFF" fill-opacity="0.00000" id="Front_Leaderboard-Back_Score" style="stroke:#181818;stroke-width:1;"/><polygon fill="#181818" points="685.08,2354,694.08,2358,690.08,2354,694.08,2350,685.08,2354" style="stroke:#181818;stroke-width:1;"/><polygon fill="#181818" points="704.15,1704.83,713.15,1708.83,709.15,1704.83,713.15,1700.83,704.15,1704.83" style="stroke:#181818;stroke-width:1;"/><text fill="#000000" font-family="sans-serif" font-size="13" lengthAdjust="spacing" textLength="145.5898" x="803" y="2052.0169">Get leaderboard score</text></g><!--link Front_Create_Problem to Back_Run_Code--><g id="link_Front_Create_Problem_Back_Run_Code"><path codeLine="169" d="M312,2184.86 C312,2110.3 312,1870 312,1870 C312,1870 392.12,1870 470.34,1870 " fill="#FFFFFF" fill-opacity="0.00000" id="Front_Create_Problem-Back_Run_Code" style="stroke:#181818;stroke-width:1;"/><polygon fill="#181818" points="312,2190.86,316,2181.86,312,2185.86,308,2181.86,312,2190.86" style="stroke:#181818;stroke-width:1;"/><polygon fill="#181818" points="476.34,1870,467.34,1866,471.34,1870,467.34,1874,476.34,1870" style="stroke:#181818;stroke-width:1;"/><text fill="#000000" font-family="sans-serif" font-size="13" lengthAdjust="spacing" textLength="90.0923" x="221" y="1961.3269">Run test code</text></g><!--link Front_Create_Problem to Back_Problem--><g id="link_Front_Create_Problem_Back_Problem"><path codeLine="170" d="M370.16,2205 C408.62,2205 452,2205 452,2205 C452,2205 452,2144.13 452,2096.85 " fill="#FFFFFF" fill-opacity="0.00000" id="Front_Create_Problem-to-Back_Problem" style="stroke:#181818;stroke-width:1;"/><polygon fill="#181818" points="452,2090.85,448,2099.85,452,2095.85,456,2099.85,452,2090.85" style="stroke:#181818;stroke-width:1;"/><text fill="#000000" font-family="sans-serif" font-size="13" lengthAdjust="spacing" textLength="124.3633" x="327" y="2184.9169">Send problem data</text></g><!--link Back_Run_Code to Front_Coding--><g id="link_Back_Run_Code_Front_Coding"><path codeLine="172" d="M731.72,1895.25 C840.16,1895.25 974,1895.25 974,1895.25 C974,1895.25 974,2236.57 974,2326.79 " fill="#FFFFFF" fill-opacity="0.00000" id="Back_Run_Code-Front_Coding" style="stroke:#181818;stroke-width:1;"/><polygon fill="#181818" points="725.72,1895.25,734.72,1899.25,730.72,1895.25,734.72,1891.25,725.72,1895.25" style="stroke:#181818;stroke-width:1;"/><polygon fill="#181818" points="974,2332.79,978,2323.79,974,2327.79,970,2323.79,974,2332.79" style="stroke:#181818;stroke-width:1;"/><text fill="#000000" font-family="sans-serif" font-size="13" lengthAdjust="spacing" textLength="60.9946" x="913" y="2002.9469">Run code</text></g><!--link Back_Run_Code to Compiler--><g id="link_Back_Run_Code_Compiler"><path codeLine="175" d="M725.66,1870 C818.87,1870 933.9,1870 992.37,1870 " fill="#FFFFFF" fill-opacity="0.00000" id="Back_Run_Code-to-Compiler" style="stroke:#181818;stroke-width:1;"/><polygon fill="#181818" points="998.37,1870,989.37,1866,993.37,1870,989.37,1874,998.37,1870" style="stroke:#181818;stroke-width:1;"/><text fill="#000000" font-family="sans-serif" font-size="13" lengthAdjust="spacing" textLength="91.019" x="770.02" y="1883.0669">HTTP Request</text></g><!--link Back_User to Data_Users--><g id="link_Back_User_Data_Users"><path codeLine="177" d="M683.29,1488 C763.13,1488 871,1488 871,1488 C871,1488 871,1204.55 871,1022.8 " fill="#FFFFFF" fill-opacity="0.00000" id="Back_User-Data_Users" style="stroke:#181818;stroke-width:1;"/><polygon fill="#181818" points="677.29,1488,686.29,1492,682.29,1488,686.29,1484,677.29,1488" style="stroke:#181818;stroke-width:1;"/><polygon fill="#181818" points="871,1016.8,867,1025.8,871,1021.8,875,1025.8,871,1016.8" style="stroke:#181818;stroke-width:1;"/></g><!--link Back_Authenticator to Token--><g id="link_Back_Authenticator_Token"><path codeLine="178" d="M720,1092.45 C720,931.77 720,401 720,401 C720,401 896.52,401 984.44,401 " fill="#FFFFFF" fill-opacity="0.00000" id="Back_Authenticator-Token" style="stroke:#181818;stroke-width:1;stroke-dasharray:7.0,7.0;"/></g><!--link Back_Score to Data_Users--><g id="link_Back_Score_Data_Users"><path codeLine="180" d="M710.32,1669.17 C800.15,1669.17 910,1669.17 910,1669.17 C910,1669.17 910,1252.05 910,1022.72 " fill="#FFFFFF" fill-opacity="0.00000" id="Back_Score-Data_Users" style="stroke:#181818;stroke-width:1;"/><polygon fill="#181818" points="704.32,1669.17,713.32,1673.17,709.32,1669.17,713.32,1665.17,704.32,1669.17" style="stroke:#181818;stroke-width:1;"/><polygon fill="#181818" points="910,1016.72,906,1025.72,910,1021.72,914,1025.72,910,1016.72" style="stroke:#181818;stroke-width:1;"/></g><!--SRC=[XLRTJzj847-E_ugHNmWgwK5RNfAg5P3h5OcY2BXxGIZQs9F4X-FDUTTmwDh__MR6Nxl9qaQoizxv_ktCxEIuj60rbDbgRI7DIanifejedQK8ILOcEKRcCIksgbGREDV_pbIQPiKAJe-T_JmhqBvi4NHfrzeXNEiK3MxXvFWuYhOgULGhXFXBgGiRmtzH1FnBScKCn5TwbHKnA0D2dyitCK7tkxMwHBZJZrW0aMxH6FPLQ3yQPHkqgbRu3Okgiz6INTMZTFIfvXh3sT9Y2Jdl-rxDIht8SGDNcR4ml2p8G54TEcws365BBNLKZRxNndQ2HfLYkT2gJ8FQ7VeheJWANZDocp1kQrqP31eHUbXzBVggOfq_8MoR67-32ysvuMYkDtPLDz8N9IhRYRjIGcYnUqNw5gtrZJKxlpW8FdJNkPgfVaioZFAUmtE4qkIyibONN329vtnOl768v9gLWIqLGFJ3gOLpMiHjbZUX_McmbBYOEESlhmpUa3fL9klXeRVv1zhvZSuniCqgXlnwUpaz3A8vSmv1h7RW_zAk3zAm-PzFbLM757hpJPOddjWKSzmNOmT9QA4f45LCmYVFETbxMgUex-Z5MXKhR4C-WhEDhWfxk1EC_Ja38qUTmkmWvrBxuXlEw3Z3s9vLTes5pH95_QltszlUyn-9uo-LP-dmzutAyYEOaQvdNQOCZxJ0FKGTeRbm35k-VKWRaI-wN54ShUxQLZYAcwhWYd60RtTyrzlT8Tq1bJs2XDP7OBCDwig6LOlLNgzyxYPUqG9nGPM5nQwc0A9IYBr2gS8YRKBku0GXEagQZfUFdEeR0_yT610Yr-z1ryJqPflbJRss7-rf4fjRwrmI2sLmx-fZWYZWXPSAJLcOlf3k7nmoksKQzrf22ucnPPLOfxHTlPVJCLHLbawYQ32uosoEOnQW7ZMX3GPIbxLQIRF1O8ecARCj3mUVUrOXB5MLIpV5pwwIQRPSPWcHNiPm_FOKliC9Fx9wnu-itlCZgm_yoEgKnU_KodJwxXycaJS8A5inDPvLYpmpQqnZaekl4LC3D_YKuRDitE3VDD0GTQUJ2CwQxW87dd4pNxIGH-6UpABp6lSmeAwRLKhvE6TQYqjFbU9iQbdY6mokrSOx1sxd5EGtt2pOEWLqbcvuIABL59zY3vIlVBztqdns4ClUYV3BybqCIogDGZ_p7MRHMCzVpkun51MRsoD8BnptwyPdgH_NwRQod2pvMJxFwzoT19EtC-PXNJTh27bw_j9KWxj9HqPXyRkpueT5vQwTWzsZVdA9deFrCEed0eHEcwt3ZXDHdmT13_eiTPAkJTE0Cx4BQHpg8tFnhhzh7GwktyxplLgZB9pg0YMJQ88a3QkInk_O1xHtkt7MAx7QBUcUCX-Dg1r7xa3-KOQpG2iVmrKzcU_Fl8vCtRd7V3D3xh0OQTfHSAHpnDkBYpJGKef3Bg-mO2_NJuTolxJJS4eeT4PbqYHZrIl6n4vqm2H1nUSHMztTCeQlTtSpwdB_LEHY5FNNL1sCaqMXM_4-LTml7qPruZNoDNOVVV7_0G00]--></g></svg>